<svg xmlns="http://www.w3.org/2000/svg" width="1000" height="815" viewBox="0 0 1000 815" role="img">
<title>NYC 311 service operations</title><desc>80,941 requests created June 1–7, 2026. Source: NYC Open Data 311 service requests. A request&#x27;s close timestamp is an administrative event.</desc>
<rect width="1000" height="815" fill="#ffffff"/>
<rect width="1000" height="12" fill="#8059b1"/>
<text x="55" y="68" fill="#15243a" font-family="Arial,Helvetica,sans-serif" font-size="34" font-weight="bold">NYC 311 service operations</text>
<text x="55" y="102" fill="#5c6a79" font-family="Arial,Helvetica,sans-serif" font-size="19" font-weight="normal">80,941 requests created June 1–7, 2026</text>
<text x="55" y="155" fill="#15243a" font-family="Arial,Helvetica,sans-serif" font-size="25" font-weight="bold">Highest-volume request types</text>
<text x="55" y="199" fill="#213047" font-family="Arial,Helvetica,sans-serif" font-size="20" font-weight="normal">Illegal Parking</text><rect x="55" y="209" width="690" height="24" rx="12" fill="#ece8f3"/><rect x="55" y="209" width="690.0" height="24" rx="12" fill="#8059b1"/><text x="763" y="229" fill="#213047" font-family="Arial,Helvetica,sans-serif" font-size="20" font-weight="bold">13,694</text>
<text x="55" y="261" fill="#213047" font-family="Arial,Helvetica,sans-serif" font-size="20" font-weight="normal">Noise - Residential</text><rect x="55" y="271" width="690" height="24" rx="12" fill="#ece8f3"/><rect x="55" y="271" width="410.2" height="24" rx="12" fill="#8059b1"/><text x="763" y="291" fill="#213047" font-family="Arial,Helvetica,sans-serif" font-size="20" font-weight="bold">8,141</text>
<text x="55" y="323" fill="#213047" font-family="Arial,Helvetica,sans-serif" font-size="20" font-weight="normal">Noise - Street/Sidewalk</text><rect x="55" y="333" width="690" height="24" rx="12" fill="#ece8f3"/><rect x="55" y="333" width="265.6" height="24" rx="12" fill="#8059b1"/><text x="763" y="353" fill="#213047" font-family="Arial,Helvetica,sans-serif" font-size="20" font-weight="bold">5,271</text>
<text x="55" y="432" fill="#647285" font-family="Arial,Helvetica,sans-serif" font-size="16" font-weight="normal">Number of requests</text>
<text x="55" y="455" fill="#15243a" font-family="Arial,Helvetica,sans-serif" font-size="25" font-weight="bold">Median recorded time to close</text>
<text x="55" y="499" fill="#213047" font-family="Arial,Helvetica,sans-serif" font-size="20" font-weight="normal">Illegal Parking</text><rect x="55" y="509" width="690" height="24" rx="12" fill="#ece8f3"/><rect x="55" y="509" width="6.5" height="24" rx="12" fill="#8059b1"/><text x="763" y="529" fill="#213047" font-family="Arial,Helvetica,sans-serif" font-size="20" font-weight="bold">1.64 h</text>
<text x="55" y="561" fill="#213047" font-family="Arial,Helvetica,sans-serif" font-size="20" font-weight="normal">Damaged Tree</text><rect x="55" y="571" width="690" height="24" rx="12" fill="#ece8f3"/><rect x="55" y="571" width="189.0" height="24" rx="12" fill="#8059b1"/><text x="763" y="591" fill="#213047" font-family="Arial,Helvetica,sans-serif" font-size="20" font-weight="bold">47.77 h</text>
<text x="55" y="623" fill="#213047" font-family="Arial,Helvetica,sans-serif" font-size="20" font-weight="normal">Unsanitary Condition</text><rect x="55" y="633" width="690" height="24" rx="12" fill="#ece8f3"/><rect x="55" y="633" width="690.0" height="24" rx="12" fill="#8059b1"/><text x="763" y="653" fill="#213047" font-family="Arial,Helvetica,sans-serif" font-size="20" font-weight="bold">174.38 h</text>
<text x="55" y="732" fill="#647285" font-family="Arial,Helvetica,sans-serif" font-size="16" font-weight="normal">Valid closed requests only; closure does not imply physical repair</text>
<line x1="55" y1="757" x2="945" y2="757" stroke="#d6dee8"/>
<text x="55" y="790" fill="#5c6a79" font-family="Arial,Helvetica,sans-serif" font-size="16" font-weight="normal">Source: NYC Open Data 311 service requests. A request&#x27;s close timestamp is an administrative event.</text>
</svg>